<svg xmlns="http://www.w3.org/2000/svg" xmlns:xlink="http://www.w3.org/1999/xlink" width="500" zoomAndPan="magnify" viewBox="0 0 375 374.999991" height="500" preserveAspectRatio="xMidYMid meet" version="1.0"><defs><clipPath id="87002fe0be"><path d="M 28.28125 12.707031 L 347 12.707031 L 347 332 L 28.28125 332 Z M 28.28125 12.707031 " clip-rule="nonzero"/></clipPath><clipPath id="c8a9d3bbda"><path d="M 94 242 L 281 242 L 281 362.207031 L 94 362.207031 Z M 94 242 " clip-rule="nonzero"/></clipPath></defs><g clip-path="url(#87002fe0be)"><path fill="#fd9f1b" d="M 28.363281 171.941406 C 28.363281 259.859375 99.628906 331.125 187.546875 331.125 C 275.460938 331.125 346.726562 259.859375 346.726562 171.941406 C 346.726562 84.023438 275.460938 12.757812 187.546875 12.757812 C 99.628906 12.757812 28.363281 84.023438 28.363281 171.941406 " fill-opacity="1" fill-rule="nonzero"/></g><path fill="#2a678c" d="M 257.453125 130.40625 L 257.453125 283.171875 L 122.070312 283.171875 L 122.070312 136.710938 L 257.453125 130.40625 " fill-opacity="1" fill-rule="nonzero"/><path fill="#2a678c" d="M 254.242188 159.128906 C 254.242188 159.128906 249.871094 196.632812 274.199219 196.125 C 274.199219 196.125 263.578125 209.300781 253.9375 203.726562 C 244.296875 198.152344 248.972656 165.210938 248.972656 165.210938 L 254.433594 156.59375 " fill-opacity="1" fill-rule="nonzero"/><g clip-path="url(#c8a9d3bbda)"><path fill="#049bb6" d="M 280.410156 331.558594 C 272.546875 337.4375 264.09375 342.585938 255.164062 346.894531 C 253.804688 347.554688 252.4375 348.179688 251.070312 348.800781 C 231.667969 357.496094 210.179688 362.332031 187.546875 362.332031 C 164.914062 362.332031 143.425781 357.496094 124.039062 348.800781 C 122.648438 348.179688 121.28125 347.554688 119.933594 346.894531 C 111.003906 342.578125 102.550781 337.4375 94.683594 331.558594 C 96.0625 300.785156 112.410156 273.90625 136.625 258.035156 C 151.253906 248.4375 168.746094 242.859375 187.546875 242.859375 C 190.417969 242.859375 193.253906 242.992188 196.042969 243.246094 C 211.621094 244.65625 226.074219 249.894531 238.46875 258.035156 C 249.621094 265.34375 259.097656 274.980469 266.210938 286.253906 C 274.5625 299.480469 279.660156 314.957031 280.410156 331.558594 " fill-opacity="1" fill-rule="nonzero"/></g><path fill="#ffffff" d="M 238.46875 258.035156 C 237.050781 268.769531 232.316406 278.46875 225.3125 286.050781 C 215.929688 296.214844 202.488281 302.589844 187.546875 302.589844 C 163.617188 302.589844 143.507812 286.222656 137.800781 264.066406 C 137.296875 262.097656 136.898438 260.082031 136.625 258.035156 C 151.253906 248.4375 168.746094 242.859375 187.546875 242.859375 C 190.417969 242.859375 193.253906 242.984375 196.050781 243.246094 C 196.539062 243.285156 197.023438 243.335938 197.5 243.386719 C 197.804688 243.417969 198.109375 243.449219 198.402344 243.488281 C 198.738281 243.519531 199.074219 243.570312 199.398438 243.609375 C 199.601562 243.632812 199.8125 243.660156 200.015625 243.691406 C 200.308594 243.722656 200.613281 243.773438 200.917969 243.8125 C 201.152344 243.84375 201.382812 243.882812 201.625 243.914062 C 201.828125 243.945312 202.03125 243.976562 202.234375 244.015625 C 202.578125 244.066406 202.914062 244.128906 203.257812 244.179688 C 204.738281 244.433594 206.207031 244.714844 207.65625 245.039062 L 208.628906 245.253906 C 208.8125 245.304688 209.003906 245.34375 209.1875 245.394531 C 209.53125 245.476562 209.886719 245.558594 210.222656 245.648438 C 210.28125 245.660156 210.332031 245.667969 210.375 245.679688 C 210.808594 245.789062 211.246094 245.902344 211.671875 246.023438 C 212.136719 246.136719 212.59375 246.265625 213.039062 246.398438 C 213.558594 246.539062 214.0625 246.691406 214.582031 246.84375 C 214.976562 246.964844 215.371094 247.085938 215.765625 247.21875 C 216.019531 247.300781 216.28125 247.382812 216.527344 247.460938 C 216.941406 247.59375 217.359375 247.734375 217.761719 247.878906 C 218.269531 248.050781 218.765625 248.222656 219.261719 248.40625 C 219.304688 248.425781 219.335938 248.4375 219.363281 248.445312 C 219.882812 248.628906 220.386719 248.820312 220.894531 249.011719 C 221.269531 249.164062 221.65625 249.308594 222.039062 249.46875 C 223.042969 249.863281 224.027344 250.28125 225 250.707031 L 226.277344 251.285156 C 226.664062 251.457031 227.046875 251.636719 227.433594 251.820312 C 227.789062 251.992188 228.132812 252.15625 228.476562 252.328125 C 228.800781 252.480469 229.113281 252.640625 229.429688 252.804688 C 229.632812 252.90625 229.84375 253.007812 230.046875 253.117188 C 230.890625 253.542969 231.710938 253.988281 232.519531 254.4375 C 232.816406 254.597656 233.117188 254.769531 233.402344 254.933594 C 233.59375 255.042969 233.777344 255.144531 233.960938 255.246094 L 234.648438 255.652344 L 235.347656 256.078125 L 235.804688 256.351562 C 236.242188 256.605469 236.667969 256.867188 237.09375 257.140625 C 237.558594 257.4375 238.015625 257.730469 238.46875 258.035156 " fill-opacity="1" fill-rule="nonzero"/><path fill="#ffffff" d="M 205.449219 222.03125 L 205.449219 257.242188 C 205.449219 266.152344 198.160156 273.449219 189.261719 273.449219 L 185.835938 273.449219 C 176.9375 273.449219 169.660156 266.152344 169.660156 257.242188 L 169.660156 222.03125 C 169.660156 213.121094 176.9375 205.835938 185.835938 205.835938 L 189.261719 205.835938 C 198.160156 205.835938 205.449219 213.121094 205.449219 222.03125 " fill-opacity="1" fill-rule="nonzero"/><path fill="#a18ef2" d="M 205.449219 222.03125 L 205.449219 240.660156 C 200.125 243.621094 194.480469 245.34375 188.753906 245.34375 C 181.992188 245.34375 175.546875 243.460938 169.660156 240.183594 L 169.660156 222.03125 C 169.660156 213.121094 176.9375 205.835938 185.835938 205.835938 L 189.261719 205.835938 C 198.160156 205.835938 205.449219 213.121094 205.449219 222.03125 " fill-opacity="1" fill-rule="nonzero"/><path fill="#ffffff" d="M 242.738281 200.199219 C 242.738281 200.199219 253.339844 196.589844 260.109375 184.773438 C 267.46875 171.941406 262.847656 163.945312 261.386719 162.210938 C 257.402344 157.476562 251.25 160.519531 250.238281 162.210938 C 249.222656 163.902344 234.546875 190.558594 242.738281 200.199219 " fill-opacity="1" fill-rule="nonzero"/><path fill="#a18ef2" d="M 253.125 166.417969 C 253.125 166.417969 259.855469 167.277344 257.496094 176.734375 C 255.125 186.203125 248.910156 189.941406 240.457031 194.777344 C 232.015625 199.613281 244.683594 168.34375 253.125 166.417969 " fill-opacity="1" fill-rule="nonzero"/><path fill="#ffffff" d="M 135.117188 200.199219 C 135.117188 200.199219 124.515625 196.589844 117.742188 184.773438 C 110.375 171.941406 114.996094 163.945312 116.457031 162.210938 C 120.441406 157.476562 126.59375 160.519531 127.605469 162.210938 C 128.617188 163.902344 143.304688 190.558594 135.117188 200.199219 " fill-opacity="1" fill-rule="nonzero"/><path fill="#a18ef2" d="M 124.71875 166.417969 C 124.71875 166.417969 117.996094 167.277344 120.359375 176.734375 C 122.71875 186.203125 128.945312 189.941406 137.386719 194.777344 C 145.839844 199.613281 133.171875 168.34375 124.71875 166.417969 " fill-opacity="1" fill-rule="nonzero"/><path fill="#ffffff" d="M 253.125 160.171875 C 253.125 121.324219 224.453125 89.820312 189.070312 89.820312 C 153.695312 89.820312 125 121.324219 125 160.171875 C 125 199.023438 153.695312 239.636719 189.070312 239.636719 C 222.3125 239.636719 253.125 198.699219 253.125 160.171875 " fill-opacity="1" fill-rule="nonzero"/><path fill="#2a678c" d="M 194.835938 131.804688 C 194.835938 131.804688 206.886719 170.574219 252.214844 166.730469 C 252.214844 166.730469 260.128906 155.289062 257.453125 130.40625 C 254.433594 102.359375 229.589844 78.761719 189.070312 87.207031 C 189.070312 87.207031 185.371094 107.144531 194.835938 131.804688 " fill-opacity="1" fill-rule="nonzero"/><path fill="#2a678c" d="M 196.863281 89.820312 C 196.863281 89.820312 198.546875 82.484375 192.464844 76.734375 C 186.382812 70.988281 105.855469 82.785156 125 160.171875 C 125 160.171875 143.773438 113.894531 193.476562 109.839844 L 196.863281 89.820312 " fill-opacity="1" fill-rule="nonzero"/></svg>