<svg xmlns="http://www.w3.org/2000/svg" xmlns:xlink="http://www.w3.org/1999/xlink" width="500" zoomAndPan="magnify" viewBox="0 0 375 374.999991" height="500" preserveAspectRatio="xMidYMid meet" version="1.0"><defs><clipPath id="95b0c0e5db"><path d="M 30.3125 12 L 344.5625 12 L 344.5625 362.871094 L 30.3125 362.871094 Z M 30.3125 12 " clip-rule="nonzero"/></clipPath><clipPath id="cd58bb10b5"><path d="M 30.3125 24.621094 L 30.3125 350.378906 C 30.3125 357.421875 36.019531 363.128906 43.0625 363.128906 L 331.9375 363.128906 C 338.980469 363.128906 344.6875 357.421875 344.6875 350.378906 L 344.6875 24.621094 C 344.6875 17.578125 338.980469 11.871094 331.9375 11.871094 L 43.0625 11.871094 C 36.019531 11.871094 30.3125 17.578125 30.3125 24.621094 Z M 30.3125 24.621094 " clip-rule="nonzero"/></clipPath><clipPath id="994b7e0414"><path d="M 0.429688 0.480469 L 314.5625 0.480469 L 314.5625 350.871094 L 0.429688 350.871094 Z M 0.429688 0.480469 " clip-rule="nonzero"/></clipPath><clipPath id="4089f6208e"><path d="M 0.3125 12.621094 L 0.3125 338.378906 C 0.3125 345.421875 6.019531 351.128906 13.0625 351.128906 L 301.9375 351.128906 C 308.980469 351.128906 314.6875 345.421875 314.6875 338.378906 L 314.6875 12.621094 C 314.6875 5.578125 308.980469 -0.128906 301.9375 -0.128906 L 13.0625 -0.128906 C 6.019531 -0.128906 0.3125 5.578125 0.3125 12.621094 Z M 0.3125 12.621094 " clip-rule="nonzero"/></clipPath><clipPath id="70d00de88e"><rect x="0" width="315" y="0" height="351"/></clipPath><clipPath id="0de924f9e3"><path d="M 73 115 L 176 115 L 176 247.347656 L 73 247.347656 Z M 73 115 " clip-rule="nonzero"/></clipPath><clipPath id="3ac33c85af"><path d="M 68.40625 69 L 202 69 L 202 154 L 68.40625 154 Z M 68.40625 69 " clip-rule="nonzero"/></clipPath><clipPath id="db576be114"><path d="M 72 94 L 281 94 L 281 247.347656 L 72 247.347656 Z M 72 94 " clip-rule="nonzero"/></clipPath></defs><g clip-path="url(#95b0c0e5db)"><g clip-path="url(#cd58bb10b5)"><g transform="matrix(1, 0, 0, 1, 30, 12)"><g clip-path="url(#70d00de88e)"><g clip-path="url(#994b7e0414)"><g clip-path="url(#4089f6208e)"><path fill="#fef9f2" d="M 0.425781 133.171875 C 0.3125 129.101562 0.425781 125.292969 0.683594 121.78125 C 1.1875 118.082031 1.691406 114.382812 2.191406 110.6875 C 2.414062 109.476562 2.640625 108.269531 2.863281 107.058594 C 2.976562 106.328125 3.160156 105.203125 3.445312 103.84375 C 4.257812 99.96875 5.15625 97.554688 7.050781 92.046875 C 9.226562 85.71875 8.773438 86.765625 9.722656 84.164062 C 10.839844 81.113281 11.917969 78.167969 13.644531 74.472656 C 14.601562 72.429688 15.964844 69.71875 17.804688 66.609375 C 19.054688 64.535156 20.304688 62.460938 21.554688 60.390625 C 21.554688 60.390625 21.554688 60.390625 21.558594 60.390625 C 23.582031 57.019531 25.96875 53.421875 28.777344 49.722656 C 30.652344 47.246094 32.527344 44.96875 34.363281 42.886719 C 35.363281 41.75 36.695312 40.273438 38.304688 38.59375 C 38.820312 38.054688 42.203125 34.53125 45.832031 31.292969 C 45.832031 31.292969 52.957031 24.9375 61.425781 19.609375 C 72.019531 12.941406 97.3125 2.476562 129.734375 0.738281 C 144.789062 -0.0703125 159.753906 1.109375 174.574219 3.765625 C 182.089844 5.113281 189.644531 6.390625 196.929688 8.804688 C 198.359375 9.160156 199.785156 9.523438 201.203125 9.914062 C 202.621094 10.300781 207 11.59375 213.210938 14.183594 C 218.308594 16.3125 223.25 18.402344 229.109375 22.269531 C 230.785156 23.375 232.121094 24.351562 233 25.015625 C 237.441406 27.726562 240.988281 30.382812 243.644531 32.554688 C 247.800781 35.953125 250.773438 38.976562 253.222656 41.480469 C 255.4375 43.742188 257.238281 45.734375 258.5625 47.242188 C 260.460938 49.34375 262.90625 52.265625 265.464844 55.980469 C 267.296875 58.644531 268.535156 60.761719 269.441406 62.320312 C 270.875 64.785156 272.972656 68.617188 275.117188 73.496094 C 276.175781 75.902344 276.925781 77.839844 277.3125 78.855469 C 278.542969 82.101562 279.308594 84.601562 280.25 87.679688 C 280.882812 89.746094 281.5 91.773438 282.230469 94.574219 C 283.296875 98.679688 283.933594 101.898438 284.1875 103.207031 C 285.039062 107.648438 285.453125 111.039062 285.746094 113.488281 C 286.207031 117.320312 286.4375 119.238281 286.515625 121.765625 C 286.652344 126.320312 286.207031 129.746094 285.878906 132.53125 C 285.304688 137.40625 284.183594 142.167969 282.824219 146.878906 C 282.804688 148.535156 282.789062 150.191406 282.769531 151.847656 C 283.132812 153.265625 283.582031 154.671875 283.472656 156.164062 C 283.921875 157.179688 284.375 158.195312 284.820312 159.207031 C 284.824219 159.207031 284.824219 159.207031 284.824219 159.207031 C 288.089844 164.210938 291.359375 169.214844 294.628906 174.21875 C 298.429688 179.726562 302.234375 185.234375 306.027344 190.753906 C 308.585938 194.472656 311.730469 197.832031 313.230469 202.21875 C 313.546875 202.777344 313.9375 203.582031 314.207031 204.605469 C 314.683594 206.386719 314.539062 207.824219 314.492188 208.214844 C 314.449219 208.585938 314.238281 210.144531 313.15625 211.988281 C 309.730469 217.820312 300.503906 221.503906 298 222.054688 C 296.230469 222.4375 295.039062 223.316406 294 224.628906 C 293.808594 225.054688 293.621094 225.484375 293.429688 225.914062 C 293.429688 225.914062 293.429688 225.917969 293.425781 225.921875 C 293.386719 227.148438 293.347656 228.375 293.308594 229.601562 C 293.546875 231.984375 294.539062 234.140625 295.292969 236.371094 C 295.6875 236.914062 296.34375 237.992188 296.519531 239.484375 C 296.609375 240.25 296.546875 240.914062 296.457031 241.410156 C 295.242188 246.644531 290.8125 249.125 287.15625 252.269531 C 287.777344 253.011719 288.394531 253.75 289.015625 254.492188 C 289.269531 254.867188 289.523438 255.242188 289.773438 255.613281 C 290.140625 256.210938 290.664062 257.226562 290.847656 258.566406 C 291.386719 262.496094 288.488281 265.40625 288.117188 265.769531 C 286.648438 267.199219 285.699219 266.792969 284.5625 267.992188 C 282.234375 270.445312 281.945312 274.003906 281.515625 277.511719 C 281.625 281.039062 282.554688 284.515625 282.132812 288.070312 C 282.140625 289.707031 282.042969 299.085938 274.507812 306.277344 C 268.445312 312.0625 261.3125 312.851562 259.203125 313.007812 C 256.714844 313.214844 254.210938 313.410156 251.699219 313.597656 C 239.644531 314.488281 227.816406 315.101562 216.234375 315.464844 C 212.816406 316.765625 204.023438 320.652344 198.25 330.097656 C 195.613281 334.40625 194.417969 338.554688 193.839844 341.582031 C 193.25 344.054688 192.535156 346.503906 192.117188 349.003906 C 191.992188 349.75 191.757812 350.226562 191.398438 350.523438 C 190.722656 351.074219 189.785156 350.945312 189.640625 350.929688 C 188.007812 350.777344 121.648438 350.761719 28.105469 350.8125 C 28.300781 350.371094 28.597656 349.699219 28.953125 348.878906 C 32.660156 340.394531 34.984375 335.074219 37.054688 329.136719 C 37.933594 326.617188 39.101562 323.019531 40.253906 318.570312 C 41.472656 313.175781 42.691406 307.78125 43.910156 302.390625 C 44.363281 298.644531 44.816406 294.898438 45.269531 291.152344 C 45.269531 291.148438 45.269531 291.148438 45.269531 291.148438 C 45.269531 291.148438 45.269531 291.152344 45.269531 291.152344 C 45.4375 287.640625 45.601562 284.128906 45.769531 280.613281 C 45.355469 275.648438 44.9375 270.683594 44.519531 265.71875 C 43.257812 259.285156 42 252.851562 40.738281 246.417969 C 40.308594 245.210938 39.671875 243.410156 38.914062 241.226562 C 35.804688 232.28125 34.25 226.820312 33.308594 224.566406 C 30.179688 217.0625 26.699219 209.757812 22.511719 202.75 C 17.917969 195.066406 13.835938 187.066406 10.441406 178.765625 C 7.125 170.660156 4.472656 162.332031 2.902344 153.691406 C 1.644531 147.851562 0.644531 140.945312 0.425781 133.171875 " fill-opacity="1" fill-rule="nonzero"/></g></g></g></g></g></g><g clip-path="url(#0de924f9e3)"><path fill="#049bb6" d="M 175.699219 158.015625 C 174.410156 159.101562 174.878906 159.839844 175.148438 161.136719 C 175.777344 164.222656 175.183594 167.253906 175.074219 170.425781 C 175 172.578125 175.066406 178.179688 174.207031 180.164062 C 174.007812 180.617188 173.785156 180.925781 173.527344 181.125 C 172.539062 180.988281 171.550781 180.839844 170.5625 180.703125 C 169.707031 180.265625 168.761719 179.71875 167.761719 179.355469 C 161.695312 177.175781 156.789062 179.066406 151.242188 181.984375 C 150.671875 182.285156 150.105469 182.335938 149.753906 182.839844 C 147.734375 185.734375 145.667969 188.386719 145.308594 191.746094 C 145.308594 191.75 145.308594 191.753906 145.308594 191.753906 C 144.226562 195.5 144.882812 199.078125 147.40625 202.40625 C 149.230469 204.808594 151.464844 206.746094 154.277344 207.914062 C 154.679688 208.082031 155.085938 208.242188 155.492188 208.394531 L 155.496094 208.394531 C 156.75 209.578125 158.0625 210.65625 159.679688 211.195312 C 161.394531 211.765625 164.171875 210.511719 165.988281 210.695312 C 167.335938 210.832031 171.394531 209.441406 172.757812 209.484375 C 175 209.558594 173.757812 212.011719 174.0625 214.21875 C 174.199219 215.210938 174.191406 216.238281 174.109375 217.238281 C 173.839844 220.371094 174.917969 223.835938 174.5 226.953125 C 173.949219 231.015625 174.59375 234.878906 175.582031 238.84375 C 175.613281 238.976562 175.640625 239.105469 175.65625 239.234375 C 175.609375 239.808594 175.5625 240.378906 175.511719 240.949219 C 175.496094 241.152344 175.480469 241.359375 175.472656 241.5625 C 175.472656 241.566406 175.472656 241.566406 175.472656 241.566406 C 175.25 242.597656 174.976562 243.628906 175.195312 244.71875 C 175.332031 245.410156 175.382812 246.140625 175.335938 246.84375 C 175.332031 246.90625 175.328125 246.972656 175.320312 247.035156 C 175.140625 246.992188 174.957031 246.925781 174.757812 246.824219 C 171.40625 245.167969 168.019531 243.578125 164.65625 241.957031 C 139.5625 229.882812 117.449219 213.714844 98.328125 193.480469 C 88.804688 183.402344 80.910156 172.175781 75.238281 159.464844 C 74.429688 157.652344 73.683594 155.832031 73.007812 153.992188 C 73.171875 153.882812 73.347656 153.785156 73.53125 153.695312 C 75.917969 153.363281 79.371094 152.890625 83.023438 152.402344 C 83.191406 152.40625 83.351562 152.40625 83.515625 152.402344 C 84.941406 152.394531 86.367188 152.402344 87.214844 152.402344 C 93.386719 152.632812 98.9375 152.0625 104.488281 151.511719 C 106.910156 151.273438 109.34375 151.132812 111.765625 150.914062 C 113.398438 150.769531 113.722656 150.40625 113.1875 148.886719 C 112.636719 147.328125 111.882812 145.835938 111.125 144.363281 C 109.710938 141.613281 108.34375 138.847656 107.640625 135.8125 C 107.609375 135.679688 107.582031 135.546875 107.554688 135.414062 C 107.546875 135.382812 107.539062 135.347656 107.535156 135.316406 C 107.402344 134.621094 107.300781 133.917969 107.238281 133.214844 C 106.882812 128.6875 108.515625 124.730469 111.921875 121.324219 C 113.796875 119.449219 116.089844 118.1875 118.574219 117.304688 C 122.988281 115.734375 127.53125 115.441406 132.089844 116.351562 C 138.207031 117.570312 142.6875 123.511719 142.089844 129.710938 C 141.617188 134.613281 141.417969 137.40625 139.363281 141.847656 C 138.402344 143.925781 135.671875 146.671875 134.324219 148.929688 C 133.867188 149.363281 133.53125 149.71875 133.441406 149.914062 C 133.230469 150.375 133.246094 150.746094 133.421875 151.042969 C 133.191406 152.050781 133.730469 152.25 135.402344 152.320312 C 136.074219 152.347656 136.746094 152.367188 137.414062 152.332031 C 138.1875 152.417969 138.945312 152.488281 139.574219 152.585938 C 140.5 152.734375 141.464844 152.664062 142.414062 152.660156 C 145.03125 152.644531 147.652344 152.621094 150.269531 152.597656 C 150.53125 152.617188 150.789062 152.636719 151.050781 152.660156 C 156.136719 153.082031 161.242188 153.292969 166.328125 153.714844 C 168.625 153.90625 170.898438 154.390625 173.1875 154.75 C 173.476562 154.796875 173.773438 154.859375 174.042969 154.976562 C 175.210938 155.480469 176.628906 157.226562 175.699219 158.015625 Z M 175.699219 158.015625 " fill-opacity="1" fill-rule="nonzero"/></g><path fill="#889f1b" d="M 279.867188 149.757812 C 279.285156 151.664062 278.621094 153.566406 277.875 155.464844 C 273.011719 167.871094 265.886719 178.898438 257.199219 188.933594 C 245.792969 202.109375 232.679688 213.394531 218.457031 223.414062 C 207.070312 231.433594 195.035156 238.324219 182.335938 244.054688 C 180.59375 244.839844 178.878906 245.6875 177.179688 246.566406 C 176.402344 245.964844 175.832031 245.070312 175.605469 243.953125 C 175.453125 243.179688 175.429688 242.367188 175.46875 241.566406 C 175.46875 241.566406 175.46875 241.566406 175.46875 241.5625 C 175.632812 240.796875 175.769531 240.027344 175.65625 239.234375 C 176.203125 232.402344 176.453125 225.582031 175.589844 218.734375 C 175.296875 216.402344 175.53125 214 175.59375 211.632812 C 175.675781 208.363281 175.425781 208.136719 172.171875 208.859375 C 171.417969 209.03125 170.664062 209.199219 169.921875 209.40625 C 164.945312 210.804688 160.164062 210.140625 155.496094 208.398438 L 155.492188 208.398438 C 154.378906 207.34375 153.3125 206.214844 152.109375 205.296875 C 148.152344 202.292969 145.546875 198.433594 145.269531 193.332031 C 145.242188 192.789062 145.253906 192.265625 145.308594 191.753906 C 145.308594 191.753906 145.308594 191.753906 145.308594 191.75 C 145.480469 191.164062 145.691406 190.570312 145.949219 189.976562 C 147.757812 185.75 150.957031 182.984375 155.277344 181.5 C 159.289062 180.121094 163.429688 179.96875 167.597656 180.355469 C 168.589844 180.449219 169.578125 180.574219 170.5625 180.707031 C 170.566406 180.707031 170.566406 180.707031 170.566406 180.707031 C 171.75 181.316406 172.765625 181.714844 173.527344 181.125 C 173.90625 181.175781 174.28125 181.230469 174.660156 181.273438 C 176.566406 181.515625 176.570312 181.5 177.074219 179.605469 C 177.132812 179.375 177.160156 179.128906 177.261719 178.921875 C 178.699219 175.992188 178.246094 172.96875 177.972656 169.875 C 177.683594 166.523438 177.875 163.125 177.863281 159.75 C 177.863281 159.453125 177.941406 159.160156 177.976562 158.867188 C 178.304688 156.398438 179.695312 154.785156 182.105469 154.339844 C 184.902344 153.824219 187.738281 153.472656 190.570312 153.234375 C 193.34375 153 196.140625 152.996094 198.929688 152.890625 C 198.9375 152.828125 198.949219 152.769531 198.953125 152.707031 C 203.5625 153.082031 208.171875 153.429688 212.777344 153.859375 C 213.886719 153.964844 218.675781 153.863281 219.730469 154.242188 C 222.507812 155.234375 219.855469 157.875 218.796875 160.613281 C 218.433594 161.546875 217.890625 162.410156 217.445312 163.316406 C 216.6875 164.859375 217.679688 166.570312 217.054688 168.164062 C 215.667969 171.703125 216.242188 173.855469 218.742188 176.738281 C 222.992188 181.652344 226.734375 183.929688 232.925781 183.179688 C 238.773438 182.472656 243.511719 179.515625 247.558594 175.382812 C 248.949219 173.960938 249.761719 172.140625 250.277344 170.226562 C 251.496094 165.703125 251.988281 161.136719 250.917969 156.5 C 250.761719 155.8125 250.671875 155.085938 250.703125 154.382812 C 250.769531 152.667969 251.671875 151.46875 253.269531 150.882812 C 253.980469 150.617188 254.765625 150.449219 255.523438 150.414062 C 260.621094 150.191406 265.71875 149.96875 270.820312 149.851562 C 272.121094 149.816406 277.632812 149.582031 279.867188 149.757812 Z M 279.867188 149.757812 " fill-opacity="1" fill-rule="nonzero"/><path fill="#fd9f1b" d="M 279.890625 149.683594 C 278.304688 149.667969 276.527344 149.183594 274.695312 149.238281 C 273.097656 149.289062 271.492188 149.160156 269.894531 149.128906 C 265.800781 149.058594 261.707031 148.941406 257.617188 148.960938 C 255.636719 148.96875 253.757812 149.550781 252.027344 150.566406 C 250.125 151.683594 249.171875 153.292969 249.136719 155.53125 C 249.089844 158.375 248.972656 161.222656 248.769531 164.058594 C 248.675781 165.414062 248.359375 166.757812 248.078125 168.089844 C 247.007812 173.144531 244.015625 176.710938 239.484375 179.039062 C 237.09375 180.265625 234.570312 181.121094 231.898438 181.496094 C 227.25 182.144531 223.535156 180.554688 221.078125 176.585938 C 217.652344 171.054688 217.367188 165.175781 219.863281 159.199219 C 220.453125 157.789062 221.242188 156.414062 222.175781 155.207031 C 223.355469 153.679688 222.816406 153.488281 221.292969 153.335938 C 219.347656 153.136719 217.390625 153.003906 215.433594 152.953125 C 208.550781 152.773438 201.667969 152.65625 194.785156 152.480469 C 192.648438 152.429688 190.515625 152.3125 188.386719 152.140625 C 187.269531 152.046875 186.160156 153.179688 185.058594 152.964844 C 183.695312 152.699219 183.300781 151.476562 182.648438 152.632812 C 182.085938 153.636719 181.457031 153.800781 180.726562 152.9375 C 179.925781 151.996094 178.832031 151.601562 178.257812 150.511719 C 176.179688 146.574219 175.667969 141.609375 174.894531 137.28125 C 174.851562 137.039062 174.808594 136.792969 174.773438 136.550781 C 174.8125 135.152344 174.921875 133.75 175.109375 132.351562 C 175.234375 131.394531 175.34375 130.433594 175.445312 129.476562 C 176.207031 128.285156 177.40625 127.488281 178.945312 127.1875 C 180.191406 128.09375 181.691406 128.539062 183.382812 128.617188 C 183.5625 128.628906 183.742188 128.636719 183.925781 128.640625 C 184.703125 129.121094 185.472656 129.53125 186.210938 129.550781 C 188.273438 129.613281 190.089844 129.476562 192.128906 129.21875 C 193.6875 129.019531 195.097656 127.691406 196.238281 126.1875 C 197.457031 125.144531 198.445312 123.773438 199.167969 122.066406 C 200.320312 119.355469 201.214844 116.488281 201.847656 113.609375 C 202.492188 110.714844 202.105469 108.046875 200.882812 105.644531 C 200.660156 104.730469 200.375 103.8125 200.035156 102.886719 C 199.136719 100.453125 197.472656 98.804688 194.96875 98.019531 C 192.929688 97.375 190.890625 96.734375 188.882812 96.003906 C 187.421875 95.464844 185.75 95.335938 184.3125 95.296875 C 189.234375 89.84375 194.5625 84.796875 200.421875 80.296875 C 206.679688 75.496094 213.621094 72.101562 221.4375 70.683594 C 230.347656 69.066406 238.976562 70.152344 247.222656 73.773438 C 264.085938 81.175781 274.9375 93.964844 280.171875 111.503906 C 284.019531 124.402344 283.710938 137.144531 279.890625 149.683594 Z M 279.890625 149.683594 " fill-opacity="1" fill-rule="nonzero"/><g clip-path="url(#3ac33c85af)"><path fill="#ea2e28" d="M 197.949219 123.574219 C 197.480469 124.378906 196.90625 125.3125 196.238281 126.1875 C 194.402344 127.761719 192.042969 128.585938 189.253906 128.6875 C 187.476562 128.753906 185.699219 128.71875 183.925781 128.636719 C 182.777344 127.929688 181.617188 127.0625 180.527344 127.046875 C 179.964844 127.039062 179.4375 127.085938 178.945312 127.183594 C 178.191406 126.636719 177.535156 125.925781 176.984375 125.027344 C 176.8125 124.75 176.546875 124.527344 176.269531 124.214844 C 176.097656 124.476562 175.949219 124.601562 175.933594 124.742188 C 175.757812 126.316406 175.609375 127.894531 175.445312 129.472656 C 174.835938 130.425781 174.503906 131.628906 174.496094 133.039062 C 174.492188 134.207031 174.597656 135.386719 174.773438 136.546875 C 174.695312 139.289062 174.875 142.035156 175.21875 144.777344 C 175.375 146.007812 175.488281 147.261719 175.476562 148.503906 C 175.445312 151.425781 173.828125 153.011719 170.886719 152.949219 C 167.507812 152.878906 164.128906 152.589844 160.746094 152.570312 C 157.253906 152.546875 153.761719 152.570312 150.265625 152.597656 C 146.027344 152.265625 141.789062 152.070312 137.535156 152.328125 C 137.492188 152.328125 137.453125 152.332031 137.410156 152.332031 C 135.691406 152.140625 133.917969 151.871094 133.421875 151.042969 C 133.488281 150.730469 133.632812 150.339844 133.84375 149.855469 C 133.96875 149.558594 134.128906 149.25 134.320312 148.929688 C 135.605469 147.71875 137.835938 145.910156 138.152344 145.386719 C 139.503906 143.15625 140.976562 140.988281 142.15625 138.671875 C 143.925781 135.1875 144.113281 131.5 142.960938 127.757812 C 141.953125 124.488281 140.425781 121.492188 138.332031 118.789062 C 136.378906 116.269531 133.859375 114.753906 130.667969 114.414062 C 125.933594 113.914062 121.265625 114.34375 116.804688 115.972656 C 111.921875 117.757812 108.992188 121.433594 107.757812 126.425781 C 107.195312 128.699219 107.03125 130.96875 107.234375 133.214844 C 107.285156 133.902344 107.382812 134.601562 107.53125 135.316406 C 107.539062 135.347656 107.546875 135.382812 107.550781 135.414062 C 107.746094 136.402344 108.007812 137.382812 108.339844 138.359375 C 108.988281 140.269531 109.691406 142.164062 110.304688 144.085938 C 110.640625 145.160156 110.933594 146.261719 111.078125 147.371094 C 111.34375 149.40625 110.308594 150.539062 108.234375 150.53125 C 105.625 150.519531 103.015625 150.386719 100.402344 150.390625 C 98.476562 150.394531 90.347656 151.421875 83.023438 152.402344 C 81.761719 152.398438 80.492188 152.347656 79.246094 152.484375 C 77.546875 152.667969 75.800781 152.871094 74.199219 153.417969 C 73.964844 153.496094 73.742188 153.589844 73.53125 153.695312 C 73.320312 153.722656 73.117188 153.75 72.925781 153.777344 C 70.070312 145.980469 68.441406 137.902344 68.597656 129.457031 C 68.878906 114.15625 73.515625 100.40625 83.617188 88.730469 C 89.746094 81.640625 97.207031 76.359375 105.992188 73.054688 C 119.171875 68.101562 131.953125 69.109375 144.28125 75.886719 C 149.839844 78.9375 154.761719 82.867188 159.226562 87.320312 C 163.550781 91.636719 167.660156 96.164062 171.820312 100.644531 C 173.136719 102.0625 174.304688 103.628906 175.671875 105.289062 C 176.691406 104.160156 177.609375 103.246094 178.414062 102.238281 C 180.222656 99.976562 182.089844 97.765625 184.019531 95.621094 C 184.273438 95.621094 184.539062 95.644531 184.804688 95.6875 C 189.945312 96.539062 194.679688 98.308594 198.375 102.175781 C 199.410156 103.261719 200.253906 104.417969 200.878906 105.644531 C 202.410156 111.875 201.269531 117.84375 197.949219 123.574219 Z M 197.949219 123.574219 " fill-opacity="1" fill-rule="nonzero"/></g><g clip-path="url(#db576be114)"><path fill="#ffffff" d="M 280.542969 147.402344 C 280.144531 148.894531 279.691406 150.378906 279.1875 151.867188 C 276.316406 152.074219 273.023438 152.292969 269.777344 152.4375 C 267.664062 152.523438 265.511719 152.589844 263.429688 152.652344 C 260.957031 152.726562 258.40625 152.800781 255.886719 152.921875 C 253.941406 153.019531 252.65625 153.082031 251.917969 154.167969 C 251.191406 155.242188 251.597656 156.421875 252.214844 158.210938 C 254.007812 163.40625 253.574219 168.910156 251 173.71875 C 248.238281 178.875 243.324219 182.699219 237.523438 184.214844 C 235.527344 184.734375 233.59375 184.996094 231.773438 184.996094 C 227.757812 184.996094 224.226562 183.769531 220.988281 181.25 C 214.433594 176.144531 212.785156 167.246094 217.070312 160.089844 C 217.265625 159.765625 217.453125 159.441406 217.707031 159.007812 L 218.191406 158.179688 L 219.109375 156.617188 C 219.3125 156.269531 219.0625 155.832031 218.660156 155.832031 L 216.847656 155.832031 L 215.382812 155.828125 C 215.148438 155.828125 214.933594 155.828125 214.71875 155.832031 C 209.796875 155.875 204.878906 155.921875 199.957031 155.964844 C 195.023438 156.007812 190.082031 156.054688 185.144531 156.101562 C 183.5625 156.117188 180.964844 155.585938 179.757812 156.894531 C 179.28125 157.414062 179.113281 158.089844 179.109375 158.78125 C 179.097656 160.707031 178.964844 162.632812 178.859375 164.550781 C 178.558594 170.183594 178.25 176.003906 177.90625 181.722656 C 177.855469 182.589844 177.648438 183.503906 177.316406 184.371094 C 176.8125 185.6875 175.859375 186.414062 174.628906 186.414062 C 174.191406 186.414062 173.726562 186.320312 173.253906 186.132812 C 171.207031 185.332031 169.398438 184.058594 167.308594 183.324219 C 165.300781 182.621094 163.1875 182.238281 161.058594 182.238281 L 160.960938 182.238281 C 156.941406 182.261719 153.289062 183.941406 150.9375 186.855469 C 148.574219 189.777344 147.695312 193.722656 148.519531 197.679688 C 149.976562 204.636719 156.644531 209.882812 164.035156 209.882812 C 166.074219 209.882812 168.042969 209.484375 169.886719 208.6875 C 171.433594 208.023438 173.117188 206.472656 174.859375 206.472656 C 176.375 206.472656 176.714844 208.007812 176.78125 208.921875 C 177.070312 212.851562 176.722656 216.863281 176.703125 220.804688 C 176.679688 224.867188 176.734375 228.933594 177.019531 232.984375 C 177.175781 235.21875 177.410156 237.4375 177.65625 239.664062 C 177.878906 241.683594 178.289062 243.796875 178.128906 245.835938 C 178.125 245.925781 178.113281 246.011719 178.097656 246.09375 C 177.644531 246.320312 177.191406 246.554688 176.742188 246.789062 C 176.066406 247.140625 175.519531 247.175781 174.828125 246.855469 C 174.769531 245.71875 174.710938 244.582031 174.648438 243.441406 C 174.320312 237.269531 173.984375 230.890625 173.695312 224.621094 C 173.585938 222.230469 173.574219 219.777344 173.558594 217.40625 C 173.554688 216.503906 173.550781 215.605469 173.539062 214.703125 C 173.53125 214.023438 173.527344 213.570312 173.4375 213.164062 C 173.222656 212.203125 172.480469 211.585938 171.539062 211.585938 C 171.007812 211.585938 170.488281 211.777344 169.832031 212.027344 C 167.929688 212.742188 165.890625 213.101562 163.78125 213.101562 C 157.117188 213.101562 150.535156 209.550781 147.011719 204.054688 C 142.125 196.421875 143.878906 186.050781 150.921875 180.941406 C 153.832031 178.832031 157.074219 177.804688 160.835938 177.804688 C 162.109375 177.804688 163.460938 177.925781 164.84375 178.167969 C 166.164062 178.398438 167.460938 178.832031 168.839844 179.289062 C 169.882812 179.632812 171.359375 180.355469 172.46875 179.945312 C 173.449219 179.582031 173.722656 178.488281 173.769531 177.546875 C 174.085938 171.109375 174.359375 165.109375 174.605469 159.210938 C 174.636719 158.390625 174.671875 157.542969 174.03125 156.859375 C 173.390625 156.175781 172.574219 156.160156 171.542969 156.136719 C 169.367188 156.089844 167.1875 156.046875 165.007812 156.003906 C 160.152344 155.910156 155.128906 155.8125 150.191406 155.664062 C 145.570312 155.527344 141.0625 155.25 137.265625 155.003906 C 135.890625 154.914062 134.597656 154.6875 133.417969 154.332031 C 132.121094 153.941406 131.230469 153.222656 130.910156 152.3125 C 130.582031 151.398438 130.824219 150.273438 131.585938 149.15625 C 131.976562 148.585938 132.453125 148.039062 132.953125 147.460938 C 133.59375 146.726562 134.1875 145.953125 134.835938 145.230469 C 135.707031 144.207031 136.609375 143.144531 137.410156 141.996094 C 140.078125 138.199219 141.132812 134.085938 140.542969 129.773438 C 139.769531 124.144531 136.078125 119.519531 130.730469 117.585938 C 124.433594 115.308594 116.929688 117.136719 112.738281 122.457031 C 110.152344 125.734375 109.050781 129.984375 109.632812 134.421875 C 110.03125 137.441406 111.085938 140.445312 112.777344 143.34375 C 113.933594 145.332031 115.558594 147.230469 116.390625 149.386719 C 116.722656 150.25 116.726562 151.113281 116.398438 151.8125 C 116.085938 152.472656 115.492188 152.964844 114.679688 153.230469 C 113.566406 153.597656 112.234375 153.824219 110.722656 153.902344 C 105.039062 154.203125 99.257812 154.464844 93.660156 154.722656 C 91.230469 154.832031 88.792969 154.945312 86.359375 155.058594 C 83.085938 155.210938 79.816406 155.367188 76.546875 155.523438 C 75.578125 155.570312 74.613281 155.617188 73.644531 155.664062 C 73.226562 154.605469 72.832031 153.539062 72.460938 152.464844 C 82.992188 151.074219 94.273438 150.25 106.796875 149.957031 C 108.332031 149.917969 109.441406 149.894531 110.023438 148.851562 C 110.605469 147.8125 110.0625 146.867188 109.304688 145.554688 C 106.660156 140.980469 105.378906 136.59375 105.386719 132.148438 C 105.398438 126.855469 107.398438 121.96875 111.011719 118.378906 C 115.667969 113.765625 122.632812 111.929688 129.007812 113.25 C 132.890625 114.054688 136.472656 116.050781 139.160156 118.972656 C 142.6875 122.800781 144.46875 127.875 144.175781 133.257812 C 143.996094 136.582031 142.988281 139.789062 141.316406 142.664062 C 140.609375 143.878906 139.710938 145.015625 138.859375 146.152344 C 137.96875 147.335938 137.203125 148.585938 136.40625 149.832031 C 136.207031 150.148438 136.394531 150.5625 136.757812 150.625 C 137.457031 150.75 138.164062 150.960938 138.863281 151.046875 C 141.601562 151.363281 144.339844 151.347656 147.089844 151.410156 C 150.554688 151.488281 154.019531 151.558594 157.484375 151.632812 C 161.3125 151.714844 165.140625 151.792969 168.96875 151.871094 C 169.582031 151.886719 170.199219 151.898438 170.808594 151.910156 C 171.050781 151.914062 171.269531 151.917969 171.457031 151.917969 C 172.050781 151.917969 173.046875 151.917969 173.734375 151.183594 C 174.4375 150.429688 174.375 149.488281 174.285156 148.183594 L 173.960938 143.480469 C 173.601562 138.269531 173.230469 132.878906 172.875 127.578125 L 172.871094 127.554688 C 172.820312 126.78125 172.773438 126.058594 172.863281 125.40625 C 173.039062 124.109375 173.820312 123.308594 174.90625 123.308594 C 175.339844 123.308594 175.796875 123.429688 176.261719 123.679688 C 176.683594 123.90625 177.105469 124.199219 177.554688 124.507812 C 177.824219 124.695312 178.101562 124.886719 178.390625 125.074219 C 183.507812 128.351562 191.3125 129.917969 196.128906 125.261719 C 196.992188 124.429688 197.699219 123.449219 198.257812 122.390625 C 200.40625 118.351562 201.15625 114.023438 200.492188 109.53125 C 200.121094 107.011719 198.996094 104.828125 197.152344 103.039062 C 193.511719 99.515625 189.035156 97.460938 183.84375 96.9375 C 183.613281 96.914062 183.378906 96.898438 183.148438 96.882812 C 183.070312 96.878906 182.992188 96.871094 182.914062 96.867188 C 183.554688 96.132812 184.203125 95.40625 184.863281 94.6875 L 186.578125 94.6875 C 187.804688 94.6875 189.101562 94.867188 190.335938 95.203125 C 193.601562 96.089844 196.617188 97.828125 199.304688 100.367188 C 202.492188 103.386719 204.105469 107.078125 204.230469 111.65625 C 204.316406 114.933594 203.753906 118.195312 202.558594 121.351562 C 200.539062 126.671875 196.203125 130.753906 190.457031 131.558594 C 187.257812 132.003906 184.214844 131.382812 181.171875 130.4375 L 181.128906 130.425781 C 180.484375 130.226562 179.992188 130.085938 179.515625 130.085938 C 178.941406 130.085938 178.421875 130.300781 178.058594 130.699219 C 177.402344 131.410156 177.476562 132.34375 177.558594 133.335938 C 177.683594 134.863281 177.816406 136.394531 177.945312 137.921875 C 178.109375 139.882812 178.277344 141.84375 178.4375 143.804688 C 178.5 144.597656 178.554688 145.410156 178.605469 146.195312 C 178.667969 147.160156 178.738281 148.15625 178.824219 149.144531 C 178.957031 150.664062 179.261719 151.921875 181.648438 151.921875 L 181.90625 151.921875 C 184.789062 151.898438 187.675781 151.867188 190.5625 151.835938 C 193.496094 151.800781 196.425781 151.769531 199.359375 151.746094 C 205.789062 151.695312 213.425781 151.640625 221.257812 151.625 L 221.28125 151.625 C 222.210938 151.625 223.238281 151.726562 224.335938 151.921875 C 225.910156 152.203125 226.324219 153.121094 226.496094 153.785156 C 227.03125 155.816406 224.542969 157.152344 223.355469 158.339844 C 222.601562 159.089844 221.820312 159.867188 221.167969 160.792969 C 218.71875 164.25 218.257812 168.589844 219.929688 172.402344 C 221.621094 176.246094 225.164062 178.871094 229.421875 179.417969 C 230.082031 179.503906 230.757812 179.546875 231.429688 179.546875 C 237.660156 179.546875 243.628906 175.8125 246.289062 170.25 C 247.789062 167.105469 248.121094 163.828125 247.261719 160.515625 C 247.050781 159.703125 246.808594 158.910156 246.566406 158.140625 C 246.378906 157.539062 246.203125 156.96875 246.042969 156.390625 C 245.449219 154.261719 245.53125 152.507812 246.289062 151.175781 C 247.03125 149.875 248.441406 148.933594 250.496094 148.375 C 252.304688 147.882812 254.390625 147.550781 257.054688 147.320312 C 261.4375 146.945312 265.496094 146.761719 269.464844 146.761719 C 272.003906 146.761719 274.511719 146.839844 276.925781 146.996094 C 278.117188 147.070312 279.335938 147.226562 280.542969 147.402344 Z M 280.542969 147.402344 " fill-opacity="1" fill-rule="nonzero"/></g></svg>